<?xml version="1.0" encoding="utf-8"?>
<!-- Generator: Adobe Illustrator 21.0.0, SVG Export Plug-In . SVG Version: 6.00 Build 0)  -->
<svg version="1.1" id="Layer_1" xmlns="http://www.w3.org/2000/svg" xmlns:xlink="http://www.w3.org/1999/xlink" x="0px" y="0px"
	 viewBox="0 0 256 221" style="enable-background:new 0 0 256 221;" xml:space="preserve">
<style type="text/css">
	.st0{fill:url(#SVGID_1_);}
	.st1{fill:url(#SVGID_2_);}
	.st2{fill:url(#SVGID_3_);}
	.st3{fill:#FFFFFF;}
	.st4{fill:url(#SVGID_4_);}
	.st5{fill:url(#SVGID_5_);}
	.st6{fill:url(#SVGID_6_);}
	.st7{fill:url(#SVGID_7_);}
	.st8{fill:url(#SVGID_8_);}
	.st9{fill:url(#SVGID_9_);}
	.st10{fill:url(#SVGID_10_);}
	.st11{fill:url(#SVGID_11_);}
</style>
<g>
	<g>
		<g>
			
				<linearGradient id="SVGID_1_" gradientUnits="userSpaceOnUse" x1="151.95" y1="112.5" x2="151.95" y2="209.6" gradientTransform="matrix(1 0 0 -1 0 222)">
				<stop  offset="0" style="stop-color:#D2973D"/>
				<stop  offset="1" style="stop-color:#F3D178"/>
			</linearGradient>
			<polygon class="st0" points="145.5,12.4 134.7,30.8 137.4,35.5 145.5,21.4 193.3,105 104.2,105 101.8,109.5 196,109.5 
				202.1,109.5 			"/>
			
				<linearGradient id="SVGID_2_" gradientUnits="userSpaceOnUse" x1="132.05" y1="88.3" x2="132.05" y2="175.5" gradientTransform="matrix(1 0 0 -1 0 222)">
				<stop  offset="0" style="stop-color:#D2973D"/>
				<stop  offset="1" style="stop-color:#F3D178"/>
			</linearGradient>
			<polygon class="st1" points="188.2,133.2 177.7,114.7 172.3,114.7 180.5,128.7 84.1,128.4 128.7,51.2 126.2,46.5 78.9,128.5 
				75.9,133.7 			"/>
			
				<linearGradient id="SVGID_3_" gradientUnits="userSpaceOnUse" x1="114.85" y1="112.5" x2="114.85" y2="210.2" gradientTransform="matrix(1 0 0 -1 0 222)">
				<stop  offset="0" style="stop-color:#D2973D"/>
				<stop  offset="1" style="stop-color:#F3D178"/>
			</linearGradient>
			<polygon class="st2" points="61.8,109.4 83.1,109.5 85.8,104.9 69.6,104.9 118,21.7 162.6,98.9 167.9,99.1 120.6,17.1 
				117.5,11.8 			"/>
		</g>
	</g>
	<g>
		<path class="st3" d="M36.1,156.9l-11.4,26H18L32.7,150h6.8l14.7,32.9h-6.8L36.1,156.9z"/>
		<path class="st3" d="M227.9,156.9l-11.4,26h-6.7l14.7-32.9h6.8l14.7,32.9h-6.8L227.9,156.9z"/>
		<path class="st3" d="M88,150.1v18.8c0,9.7-6,14.7-14.2,14.7c-7.9,0-14.6-4.8-14.6-14.7v-18.8h6.2v18.8c0,5.9,3.4,9.1,8.5,9.1
			s8-3.4,8-9.1v-18.8H88z"/>
		<path class="st3" d="M167.5,166.7c-0.1,8.5-5.3,17-16.9,17c-11.5,0-16.9-8.3-16.9-16.9c0-8.6,5.5-17.3,16.9-17.3
			C161.9,149.4,167.6,158.1,167.5,166.7z M139.8,166.8c0.1,5.4,3.1,11.2,10.8,11.2s10.7-5.8,10.8-11.2c0.1-5.5-3-11.7-10.8-11.7
			C142.9,155,139.7,161.3,139.8,166.8z"/>
		<path class="st3" d="M118,171.3c6.2-1.3,8.3-5.8,8.3-10.3c0-5.7-4.1-10.8-11.8-10.9c-5.2,0-10.4,0-15.6,0V183h6.2v-27.1h9.4
			c3.9,0,5.6,2.6,5.6,5.3s-1.7,5.3-5.6,5.3H111v5.6l0,0l9.6,11h7.4v-0.4L118,171.3z"/>
		<path class="st3" d="M196,171.3c6.2-1.3,8.3-5.8,8.3-10.3c0-5.7-4.1-10.8-11.8-10.9c-5.2,0-10.4,0-15.6,0V183h6.2v-27.1h9.4
			c3.9,0,5.6,2.6,5.6,5.3s-1.7,5.3-5.6,5.3H189v5.6l0,0l9.6,11h7.4v-0.4L196,171.3z"/>
	</g>
	<g>
		
			<linearGradient id="SVGID_4_" gradientUnits="userSpaceOnUse" x1="79.85" y1="28.79" x2="79.85" y2="15.7129" gradientTransform="matrix(1 0 0 -1 0 222)">
			<stop  offset="0" style="stop-color:#D2973D"/>
			<stop  offset="1" style="stop-color:#F3D178"/>
		</linearGradient>
		<path class="st4" d="M74.6,203.5l1.1-0.6c0.2,0.4,0.5,0.7,0.8,1s0.7,0.5,1.1,0.7s0.8,0.3,1.1,0.4c0.4,0.1,0.8,0.1,1.2,0.1
			c0.3,0,0.7,0,1-0.1c0.3,0,0.7-0.1,1-0.2c0.3-0.1,0.7-0.3,0.9-0.4c0.3-0.2,0.5-0.4,0.6-0.7s0.2-0.6,0.2-1c0-0.2,0-0.5-0.1-0.7
			s-0.2-0.4-0.3-0.5c-0.1-0.1-0.3-0.3-0.5-0.4c-0.2-0.1-0.4-0.2-0.6-0.3s-0.4-0.2-0.7-0.2c-0.3-0.1-0.6-0.1-0.8-0.2
			c-0.2,0-0.5-0.1-0.8-0.2c-0.4-0.1-0.8-0.1-1-0.2c-0.3-0.1-0.6-0.1-1-0.2c-0.4-0.1-0.7-0.2-0.9-0.3c-0.2-0.1-0.5-0.2-0.7-0.4
			c-0.3-0.2-0.5-0.4-0.6-0.6c-0.2-0.2-0.3-0.5-0.4-0.7c-0.1-0.3-0.1-0.6-0.1-0.9l0,0c0-0.5,0.1-0.9,0.3-1.3c0.2-0.4,0.5-0.7,0.8-1
			s0.7-0.5,1.1-0.6c0.4-0.2,0.9-0.3,1.3-0.4c0.4-0.1,0.9-0.1,1.3-0.1c2.2,0,3.8,0.7,4.7,2.2l-1,0.6c-0.3-0.6-0.8-1-1.5-1.2
			c-0.7-0.3-1.4-0.4-2.1-0.4c-0.4,0-0.8,0-1.2,0.1c-0.4,0.1-0.8,0.2-1.1,0.4c-0.4,0.2-0.7,0.4-0.9,0.7c-0.2,0.3-0.3,0.7-0.3,1.2
			c0,0.3,0.1,0.6,0.2,0.8s0.3,0.4,0.5,0.6c0.2,0.1,0.5,0.3,0.8,0.4c0.4,0.1,0.7,0.2,0.9,0.3c0.3,0.1,0.7,0.1,1.2,0.2
			c0.4,0.1,0.7,0.1,0.9,0.2c0.3,0.1,0.6,0.1,0.9,0.2c0.3,0.1,0.6,0.2,0.9,0.3s0.5,0.2,0.7,0.3s0.5,0.3,0.7,0.5s0.3,0.4,0.5,0.6
			s0.3,0.5,0.3,0.7c0.1,0.3,0.1,0.6,0.1,0.9c0,0.6-0.1,1-0.3,1.5c-0.2,0.4-0.5,0.8-0.8,1c-0.3,0.3-0.7,0.5-1.2,0.7s-0.9,0.3-1.4,0.4
			c-0.4,0.1-0.9,0.1-1.4,0.1c-1.2,0-2.2-0.2-3.2-0.7C75.8,205.1,75.1,204.4,74.6,203.5z"/>
		
			<linearGradient id="SVGID_5_" gradientUnits="userSpaceOnUse" x1="94.95" y1="28.8076" x2="94.95" y2="15.6768" gradientTransform="matrix(1 0 0 -1 0 222)">
			<stop  offset="0" style="stop-color:#D2973D"/>
			<stop  offset="1" style="stop-color:#F3D178"/>
		</linearGradient>
		<path class="st5" d="M88.6,199.8c0-0.9,0.1-1.7,0.4-2.5s0.7-1.5,1.2-2.1s1.2-1.1,2-1.4c0.8-0.4,1.7-0.5,2.7-0.5
			c0.8,0,1.6,0.1,2.3,0.4c0.7,0.2,1.3,0.6,1.8,1s0.9,0.9,1.3,1.5s0.6,1.1,0.8,1.8c0.2,0.6,0.2,1.3,0.2,1.9c0,0,0,0,0,0.1
			c0,0.7-0.1,1.3-0.3,2c-0.2,0.6-0.4,1.2-0.8,1.8s-0.8,1-1.3,1.5c-0.5,0.4-1.1,0.7-1.8,1c-0.7,0.2-1.5,0.4-2.3,0.4s-1.6-0.1-2.3-0.4
			c-0.7-0.2-1.3-0.6-1.8-1s-0.9-0.9-1.3-1.5s-0.6-1.2-0.8-1.8C88.6,201.1,88.6,200.4,88.6,199.8z M89.8,199.8c0,0.7,0.1,1.4,0.3,2
			c0.2,0.6,0.5,1.2,0.9,1.7s1,0.9,1.6,1.2c0.7,0.3,1.4,0.4,2.3,0.4c0.8,0,1.6-0.2,2.3-0.5s1.2-0.7,1.6-1.2s0.7-1.1,0.9-1.7
			c0.2-0.6,0.3-1.3,0.3-2c0-0.6-0.1-1.1-0.2-1.7c-0.1-0.5-0.3-1-0.6-1.5s-0.6-0.8-1-1.2c-0.4-0.3-0.9-0.6-1.4-0.8
			c-0.6-0.2-1.2-0.3-1.9-0.3c-0.8,0-1.6,0.1-2.2,0.4c-0.7,0.3-1.2,0.7-1.6,1.2s-0.7,1.1-1,1.7c-0.2,0.6-0.3,1.3-0.3,2
			C89.8,199.7,89.8,199.7,89.8,199.8z"/>
		
			<linearGradient id="SVGID_6_" gradientUnits="userSpaceOnUse" x1="110.05" y1="28.6" x2="110.05" y2="15.9203" gradientTransform="matrix(1 0 0 -1 0 222)">
			<stop  offset="0" style="stop-color:#D2973D"/>
			<stop  offset="1" style="stop-color:#F3D178"/>
		</linearGradient>
		<path class="st6" d="M105.9,206.1v-12.7h1.3v11.5h7v1.2H105.9z"/>
		
			<linearGradient id="SVGID_7_" gradientUnits="userSpaceOnUse" x1="123.05" y1="28.6" x2="123.05" y2="15.8" gradientTransform="matrix(1 0 0 -1 0 222)">
			<stop  offset="0" style="stop-color:#D2973D"/>
			<stop  offset="1" style="stop-color:#F3D178"/>
		</linearGradient>
		<path class="st7" d="M118,201.1v-7.7h1.3v7.7c0,1.2,0.4,2.1,1.1,2.8s1.6,1.1,2.7,1.1c0.5,0,1-0.1,1.4-0.2c0.4-0.2,0.8-0.4,1.2-0.7
			c0.4-0.3,0.6-0.7,0.8-1.2s0.3-1.1,0.3-1.7v-7.7h1.3v7.7c0,0.8-0.1,1.6-0.4,2.2s-0.6,1.2-1.1,1.6c-0.5,0.4-1,0.7-1.6,0.9
			s-1.2,0.3-1.9,0.3s-1.4-0.1-2-0.3s-1.1-0.5-1.6-0.9s-0.8-0.9-1.1-1.6C118.1,202.7,118,202,118,201.1z"/>
		
			<linearGradient id="SVGID_8_" gradientUnits="userSpaceOnUse" x1="138" y1="28.7725" x2="138" y2="11.5303" gradientTransform="matrix(1 0 0 -1 0 222)">
			<stop  offset="0" style="stop-color:#D2973D"/>
			<stop  offset="1" style="stop-color:#F3D178"/>
		</linearGradient>
		<path class="st8" d="M132.4,199.8c0-0.7,0.1-1.4,0.2-2s0.4-1.2,0.8-1.8c0.4-0.6,0.8-1,1.3-1.5c0.5-0.4,1.1-0.7,1.9-1
			c0.7-0.2,1.5-0.4,2.4-0.4s1.7,0.2,2.5,0.5s1.5,0.8,2,1.4l-0.8,0.8c-1-1-2.3-1.5-3.7-1.5c-0.9,0-1.6,0.1-2.3,0.4
			c-0.7,0.3-1.2,0.7-1.7,1.2c-0.4,0.5-0.8,1.1-1,1.7c-0.2,0.6-0.3,1.3-0.3,2s0.1,1.4,0.3,2.1c0.2,0.6,0.6,1.2,1,1.7s1,0.9,1.7,1.1
			c0.7,0.3,1.5,0.4,2.3,0.4c0.7,0,1.4-0.1,2-0.4c0.7-0.3,1.3-0.7,1.8-1.2l0.8,0.8c-0.6,0.6-1.3,1.1-2.1,1.4
			c-0.8,0.3-1.6,0.5-2.4,0.5l-0.2,0.8c0.7,0,1.3,0.2,1.6,0.6c0.3,0.4,0.4,0.9,0.3,1.4c-0.1,0.5-0.4,0.8-0.8,1
			c-0.4,0.2-0.8,0.4-1.3,0.4c-0.4,0-0.8-0.1-1.2-0.3s-0.6-0.5-0.8-0.8l0.6-0.6c0.3,0.4,0.8,0.7,1.4,0.7c0.3,0,0.5-0.1,0.7-0.2
			c0.2-0.1,0.3-0.3,0.4-0.5c0.1-0.3,0-0.6-0.3-0.8s-0.8-0.2-1.4-0.1l-0.2-0.2l0.4-1.5c-0.9-0.1-1.8-0.3-2.5-0.7s-1.3-0.8-1.8-1.4
			c-0.5-0.6-0.8-1.2-1.1-2C132.6,201.4,132.4,200.7,132.4,199.8z"/>
		
			<linearGradient id="SVGID_9_" gradientUnits="userSpaceOnUse" x1="153.35" y1="32.0392" x2="153.35" y2="15.6657" gradientTransform="matrix(1 0 0 -1 0 222)">
			<stop  offset="0" style="stop-color:#D2973D"/>
			<stop  offset="1" style="stop-color:#F3D178"/>
		</linearGradient>
		<path class="st9" d="M147,199.8c0-0.9,0.1-1.7,0.4-2.5c0.3-0.8,0.7-1.5,1.2-2.1s1.2-1.1,2-1.4c0.8-0.4,1.7-0.5,2.7-0.5
			c0.8,0,1.6,0.1,2.3,0.4c0.7,0.2,1.3,0.6,1.8,1s0.9,0.9,1.3,1.5c0.4,0.6,0.6,1.2,0.8,1.8s0.2,1.3,0.2,2s-0.1,1.3-0.3,2
			c-0.2,0.6-0.4,1.2-0.8,1.8s-0.8,1-1.3,1.5c-0.5,0.4-1.1,0.7-1.8,1c-0.7,0.2-1.5,0.4-2.3,0.4s-1.6-0.1-2.3-0.4
			c-0.7-0.2-1.3-0.6-1.8-1s-0.9-0.9-1.3-1.5c-0.4-0.6-0.6-1.2-0.8-1.8C147.1,201.1,147,200.4,147,199.8z M148.3,199.8
			c0,0.7,0.1,1.4,0.3,2s0.5,1.2,0.9,1.7s1,0.9,1.6,1.2c0.7,0.3,1.4,0.4,2.3,0.4c0.8,0,1.6-0.2,2.3-0.5s1.2-0.7,1.6-1.2
			c0.4-0.5,0.7-1.1,0.9-1.7c0.2-0.6,0.3-1.3,0.3-2c0-0.6-0.1-1.1-0.2-1.7c-0.1-0.5-0.3-1-0.6-1.5s-0.6-0.8-1-1.2
			c-0.4-0.3-0.9-0.6-1.4-0.8c-0.6-0.2-1.2-0.3-1.9-0.3c-0.8,0-1.6,0.1-2.2,0.4c-0.7,0.3-1.2,0.7-1.6,1.2c-0.4,0.5-0.7,1.1-1,1.7
			C148.4,198.3,148.3,199,148.3,199.8z M151.2,191.2c0.1-0.5,0.3-0.8,0.6-1s0.7-0.3,1.1-0.2c0.1,0,0.3,0.1,0.5,0.2
			c0.2,0.1,0.4,0.2,0.5,0.2c0.2,0.1,0.3,0.1,0.5,0.2c0.2,0,0.3,0,0.5-0.1s0.2-0.3,0.3-0.5l0.8,0.3c-0.1,0.5-0.3,0.9-0.6,1.1
			c-0.3,0.2-0.7,0.3-1.1,0.2c-0.1,0-0.3-0.1-0.5-0.2c-0.2-0.1-0.4-0.2-0.6-0.2c-0.2-0.1-0.3-0.1-0.5-0.1s-0.3,0-0.5,0.1
			c-0.1,0.1-0.2,0.3-0.3,0.5L151.2,191.2z"/>
		
			<linearGradient id="SVGID_10_" gradientUnits="userSpaceOnUse" x1="168.9" y1="28.6" x2="168.9" y2="15.9203" gradientTransform="matrix(1 0 0 -1 0 222)">
			<stop  offset="0" style="stop-color:#D2973D"/>
			<stop  offset="1" style="stop-color:#F3D178"/>
		</linearGradient>
		<path class="st10" d="M164.4,206.1v-12.7h8.9v1.2h-7.7v4.6h7.3v1.2h-7.3v4.6h7.8v1.2h-9V206.1z"/>
		
			<linearGradient id="SVGID_11_" gradientUnits="userSpaceOnUse" x1="182.25" y1="28.79" x2="182.25" y2="15.7129" gradientTransform="matrix(1 0 0 -1 0 222)">
			<stop  offset="0" style="stop-color:#D2973D"/>
			<stop  offset="1" style="stop-color:#F3D178"/>
		</linearGradient>
		<path class="st11" d="M177,203.5l1.1-0.6c0.2,0.4,0.5,0.7,0.8,1s0.7,0.5,1.1,0.7c0.4,0.2,0.8,0.3,1.1,0.4c0.4,0.1,0.8,0.1,1.2,0.1
			c0.3,0,0.7,0,1-0.1c0.3,0,0.7-0.1,1-0.2c0.3-0.1,0.7-0.3,0.9-0.4c0.3-0.2,0.5-0.4,0.6-0.7s0.2-0.6,0.2-1c0-0.2,0-0.5-0.1-0.7
			s-0.2-0.4-0.3-0.5s-0.3-0.3-0.5-0.4c-0.2-0.1-0.4-0.2-0.6-0.3c-0.2-0.1-0.4-0.2-0.7-0.2c-0.3-0.1-0.6-0.1-0.8-0.2
			c-0.2,0-0.5-0.1-0.8-0.2c-0.4-0.1-0.8-0.1-1-0.2c-0.3-0.1-0.6-0.1-1-0.2c-0.4-0.1-0.7-0.2-0.9-0.3s-0.5-0.2-0.7-0.4
			c-0.3-0.2-0.5-0.4-0.6-0.6c-0.2-0.2-0.3-0.5-0.4-0.7c-0.1-0.3-0.1-0.6-0.1-0.9l0,0c0-0.5,0.1-0.9,0.3-1.3c0.2-0.4,0.5-0.7,0.8-1
			s0.7-0.5,1.1-0.6c0.4-0.2,0.9-0.3,1.3-0.4c0.4-0.1,0.9-0.1,1.3-0.1c2.2,0,3.8,0.7,4.7,2.2l-1,0.6c-0.3-0.6-0.8-1-1.5-1.2
			c-0.7-0.3-1.4-0.4-2.1-0.4c-0.4,0-0.8,0-1.2,0.1s-0.8,0.2-1.1,0.4c-0.4,0.2-0.7,0.4-0.9,0.7s-0.3,0.7-0.3,1.2
			c0,0.3,0.1,0.6,0.2,0.8c0.1,0.2,0.3,0.4,0.5,0.6c0.2,0.1,0.5,0.3,0.8,0.4c0.4,0.1,0.7,0.2,0.9,0.3c0.3,0.1,0.7,0.1,1.2,0.2
			c0.4,0.1,0.7,0.1,0.9,0.2c0.3,0.1,0.6,0.1,0.9,0.2c0.3,0.1,0.6,0.2,0.9,0.3s0.5,0.2,0.7,0.3s0.5,0.3,0.7,0.5s0.3,0.4,0.5,0.6
			s0.3,0.5,0.3,0.7c0.1,0.3,0.1,0.6,0.1,0.9c0,0.6-0.1,1-0.3,1.5c-0.2,0.4-0.5,0.8-0.8,1c-0.3,0.3-0.7,0.5-1.2,0.7s-0.9,0.3-1.4,0.4
			c-0.4,0.1-0.9,0.1-1.4,0.1c-1.2,0-2.2-0.2-3.2-0.7C178.2,205.1,177.5,204.4,177,203.5z"/>
	</g>
</g>
</svg>
